HIERARCHY
ROOT Hips
{
	OFFSET	0.00	0.00	0.00
	CHANNELS 6 Xposition Yposition Zposition Zrotation Xrotation Yrotation
	JOINT Spine
	{
		OFFSET	 0.000000	 0.052128	 0.009727
		CHANNELS 3 Zrotation Xrotation Yrotation
		JOINT Chest
		{
			OFFSET	 0.000000	 0.110886	 0.014510
			CHANNELS 3 Zrotation Xrotation Yrotation
			JOINT UpperChest
			{
				OFFSET	-0.000000	 0.124285	-0.013313
				CHANNELS 3 Zrotation Xrotation Yrotation
				JOINT Neck
				{
					OFFSET	-0.000000	 0.114615	-0.033396
					CHANNELS 3 Zrotation Xrotation Yrotation
					JOINT Head
					{
						OFFSET	 0.000000	 0.073770	 0.009335
						CHANNELS 3 Zrotation Xrotation Yrotation
						JOINT LeftEye
						{
							OFFSET	 0.020036	 0.059252	 0.028383
							CHANNELS 3 Zrotation Xrotation Yrotation
							End Site
							{
								OFFSET	 0.020036	 0.059252	 0.028383
							}
						}
						JOINT RightEye
						{
							OFFSET	-0.020036	 0.059252	 0.028383
							CHANNELS 3 Zrotation Xrotation Yrotation
							End Site
							{
								OFFSET	-0.020036	 0.059252	 0.028383
							}
						}
					}
				}
				JOINT LeftShoulder
				{
					OFFSET	 0.022386	 0.087264	-0.027443
					CHANNELS 3 Zrotation Xrotation Yrotation
					JOINT LeftUpperArm
					{
						OFFSET	 0.086295	-0.014869	 0.005364
						CHANNELS 3 Zrotation Xrotation Yrotation
						JOINT LeftLowerArm
						{
							OFFSET	 0.210165	-0.009786	 0.001763
							CHANNELS 3 Zrotation Xrotation Yrotation
							JOINT LeftHand
							{
								OFFSET	 0.204753	-0.000446	 0.016902
								CHANNELS 3 Zrotation Xrotation Yrotation
								JOINT LeftIndexProximal
								{
									OFFSET	 0.063906	 0.005562	 0.021442
									CHANNELS 3 Zrotation Xrotation Yrotation
									JOINT LeftIndexIntermediate
									{
										OFFSET	 0.032821	-0.000134	 0.005149
										CHANNELS 3 Zrotation Xrotation Yrotation
										JOINT LeftIndexDistal
										{
											OFFSET	 0.020314	-0.000673	 0.002301
											CHANNELS 3 Zrotation Xrotation Yrotation
											End Site
											{
												OFFSET	 0.020314	-0.000673	 0.002301
											}
										}
									}
								}
								JOINT LeftLittleProximal
								{
									OFFSET	 0.063261	 0.003125	-0.026794
									CHANNELS 3 Zrotation Xrotation Yrotation
									JOINT LeftLittleIntermediate
									{
										OFFSET	 0.031398	-0.000273	 0.000022
										CHANNELS 3 Zrotation Xrotation Yrotation
										JOINT LeftLittleDistal
										{
											OFFSET	 0.018059	 0.000679	-0.000943
											CHANNELS 3 Zrotation Xrotation Yrotation
											End Site
											{
												OFFSET	 0.018059	 0.000679	-0.000943
											}
										}
									}
								}
								JOINT LeftMiddleProximal
								{
									OFFSET	 0.066112	 0.008373	 0.004780
									CHANNELS 3 Zrotation Xrotation Yrotation
									JOINT LeftMiddleIntermediate
									{
										OFFSET	 0.036901	-0.001349	 0.002438
										CHANNELS 3 Zrotation Xrotation Yrotation
										JOINT LeftMiddleDistal
										{
											OFFSET	 0.022683	-0.002406	 0.000937
											CHANNELS 3 Zrotation Xrotation Yrotation
											End Site
											{
												OFFSET	 0.022683	-0.002406	 0.000937
											}
										}
									}
								}
								JOINT LeftRingProximal
								{
									OFFSET	 0.066681	 0.008306	-0.010961
									CHANNELS 3 Zrotation Xrotation Yrotation
									JOINT LeftRingIntermediate
									{
										OFFSET	 0.034323	-0.000538	 0.000172
										CHANNELS 3 Zrotation Xrotation Yrotation
										JOINT LeftRingDistal
										{
											OFFSET	 0.019796	 0.000700	 0.000249
											CHANNELS 3 Zrotation Xrotation Yrotation
											End Site
											{
												OFFSET	 0.019796	 0.000700	 0.000249
											}
										}
									}
								}
								JOINT LeftThumbProximal
								{
									OFFSET	 0.002032	-0.006912	 0.017734
									CHANNELS 3 Zrotation Xrotation Yrotation
									JOINT LeftThumbIntermediate
									{
										OFFSET	 0.032287	-0.002701	 0.033401
										CHANNELS 3 Zrotation Xrotation Yrotation
										JOINT LeftThumbDistal
										{
											OFFSET	 0.021324	-0.001512	 0.019035
											CHANNELS 3 Zrotation Xrotation Yrotation
											End Site
											{
												OFFSET	 0.021324	-0.001512	 0.019035
											}
										}
									}
								}
							}
						}
					}
				}
				JOINT RightShoulder
				{
					OFFSET	-0.022386	 0.087267	-0.027443
					CHANNELS 3 Zrotation Xrotation Yrotation
					JOINT RightUpperArm
					{
						OFFSET	-0.086294	-0.014870	 0.005364
						CHANNELS 3 Zrotation Xrotation Yrotation
						JOINT RightLowerArm
						{
							OFFSET	-0.210167	-0.009788	 0.001763
							CHANNELS 3 Zrotation Xrotation Yrotation
							JOINT RightHand
							{
								OFFSET	-0.204752	-0.000445	 0.016902
								CHANNELS 3 Zrotation Xrotation Yrotation
								JOINT RightIndexProximal
								{
									OFFSET	-0.063906	 0.005562	 0.021442
									CHANNELS 3 Zrotation Xrotation Yrotation
									JOINT RightIndexIntermediate
									{
										OFFSET	-0.032821	-0.000134	 0.005149
										CHANNELS 3 Zrotation Xrotation Yrotation
										JOINT RightIndexDistal
										{
											OFFSET	-0.020313	-0.000674	 0.002302
											CHANNELS 3 Zrotation Xrotation Yrotation
											End Site
											{
												OFFSET	-0.020313	-0.000674	 0.002302
											}
										}
									}
								}
								JOINT RightLittleProximal
								{
									OFFSET	-0.063261	 0.003125	-0.026793
									CHANNELS 3 Zrotation Xrotation Yrotation
									JOINT RightLittleIntermediate
									{
										OFFSET	-0.031398	-0.000273	 0.000023
										CHANNELS 3 Zrotation Xrotation Yrotation
										JOINT RightLittleDistal
										{
											OFFSET	-0.018059	 0.000679	-0.000943
											CHANNELS 3 Zrotation Xrotation Yrotation
											End Site
											{
												OFFSET	-0.018059	 0.000679	-0.000943
											}
										}
									}
								}
								JOINT RightMiddleProximal
								{
									OFFSET	-0.066112	 0.008373	 0.004780
									CHANNELS 3 Zrotation Xrotation Yrotation
									JOINT RightMiddleIntermediate
									{
										OFFSET	-0.036901	-0.001349	 0.002438
										CHANNELS 3 Zrotation Xrotation Yrotation
										JOINT RightMiddleDistal
										{
											OFFSET	-0.022683	-0.002405	 0.000937
											CHANNELS 3 Zrotation Xrotation Yrotation
											End Site
											{
												OFFSET	-0.022683	-0.002405	 0.000937
											}
										}
									}
								}
								JOINT RightRingProximal
								{
									OFFSET	-0.066681	 0.008306	-0.010961
									CHANNELS 3 Zrotation Xrotation Yrotation
									JOINT RightRingIntermediate
									{
										OFFSET	-0.034323	-0.000538	 0.000173
										CHANNELS 3 Zrotation Xrotation Yrotation
										JOINT RightRingDistal
										{
											OFFSET	-0.019796	 0.000700	 0.000249
											CHANNELS 3 Zrotation Xrotation Yrotation
											End Site
											{
												OFFSET	-0.019796	 0.000700	 0.000249
											}
										}
									}
								}
								JOINT RightThumbProximal
								{
									OFFSET	-0.002032	-0.006912	 0.017734
									CHANNELS 3 Zrotation Xrotation Yrotation
									JOINT RightThumbIntermediate
									{
										OFFSET	-0.032277	-0.002678	 0.033413
										CHANNELS 3 Zrotation Xrotation Yrotation
										JOINT RightThumbDistal
										{
											OFFSET	-0.021320	-0.001499	 0.019041
											CHANNELS 3 Zrotation Xrotation Yrotation
											End Site
											{
												OFFSET	-0.021320	-0.001499	 0.019041
											}
										}
									}
								}
							}
						}
					}
				}
			}
		}
	}
	JOINT LeftUpperLeg
	{
		OFFSET	 0.077122	-0.039702	-0.004909
		CHANNELS 3 Zrotation Xrotation Yrotation
		JOINT LeftLowerLeg
		{
			OFFSET	-0.019635	-0.342479	-0.006635
			CHANNELS 3 Zrotation Xrotation Yrotation
			JOINT LeftFoot
			{
				OFFSET	-0.010011	-0.401579	-0.020943
				CHANNELS 3 Zrotation Xrotation Yrotation
				JOINT LeftToes
				{
					OFFSET	 0.001443	-0.064447	 0.110538
					CHANNELS 3 Zrotation Xrotation Yrotation
					End Site
					{
						OFFSET	 0.001443	-0.064447	 0.110538
					}
				}
			}
		}
	}
	JOINT RightUpperLeg
	{
		OFFSET	-0.077122	-0.039702	-0.004909
		CHANNELS 3 Zrotation Xrotation Yrotation
		JOINT RightLowerLeg
		{
			OFFSET	 0.019635	-0.342479	-0.006634
			CHANNELS 3 Zrotation Xrotation Yrotation
			JOINT RightFoot
			{
				OFFSET	 0.010012	-0.401580	-0.020943
				CHANNELS 3 Zrotation Xrotation Yrotation
				JOINT RightToes
				{
					OFFSET	-0.001442	-0.064447	 0.110538
					CHANNELS 3 Zrotation Xrotation Yrotation
					End Site
					{
						OFFSET	-0.001442	-0.064447	 0.110538
					}
				}
			}
		}
	}
}
MOTION
Frames:    6
Frame Time: 0.03333334
-0.107600	 0.887754	-0.101266	-0.783526	 2.692599	 0.653554	-2.655994	-7.371152	 11.902030	-5.191273	 12.238260	 0.700095	 0.000000	 0.000000	 0.000000	-0.747103	-11.754800	-0.519701	-1.326791	 4.433952	 1.902964	 0.000000	 0.000000	 0.000000	 0.000000	 0.000000	 0.000000	-5.445993	-14.268760	 8.881110	-24.820100	 13.102930	-3.990191	 14.486030	-41.982980	-34.956430	 4.202845	 24.992830	-3.186708	 0.000000	 0.000000	 0.000000	 0.000000	 0.000000	 0.000000	 0.000000	 0.000000	 0.000000	 0.000000	 0.000000	 0.000000	 0.000000	 0.000000	 0.000000	 0.000000	 0.000000	 0.000000	 0.000000	 0.000000	 0.000000	 0.000000	 0.000000	 0.000000	 0.000000	 0.000000	 0.000000	 0.000000	 0.000000	 0.000000	 0.000000	 0.000000	 0.000000	 0.000000	 0.000000	 0.000000	 0.000000	 0.000000	 0.000000	 0.000000	 0.000000	 0.000000	 0.000000	 0.000000	 0.000000	-23.374190	-13.572940	-13.530300	 34.495940	 14.193200	 1.155767	-1.880577	 1.103589	 9.643343	-18.054710	-3.359042	-7.074015	 0.000000	 0.000000	 0.000000	 0.000000	 0.000000	 0.000000	 0.000000	 0.000000	 0.000000	 0.000000	 0.000000	 0.000000	 0.000000	 0.000000	 0.000000	 0.000000	 0.000000	 0.000000	 0.000000	 0.000000	 0.000000	 0.000000	 0.000000	 0.000000	 0.000000	 0.000000	 0.000000	 0.000000	 0.000000	 0.000000	 0.000000	 0.000000	 0.000000	 0.000000	 0.000000	 0.000000	 0.000000	 0.000000	 0.000000	 0.000000	 0.000000	 0.000000	 0.000000	 0.000000	 0.000000	 5.803771	-47.669050	 3.879535	 70.727080	 81.816520	-74.407490	 0.067632	 6.429158	-3.984722	 0.000000	 0.000000	 0.000000	 1.128291	-5.393571	 0.424502	 4.621481	 26.796030	-5.626615	-2.243532	-17.450390	-5.304809	 0.000000	 0.000000	 0.000000
-0.114042	 0.875873	-0.111412	-0.552724	 2.874726	-1.165000	-3.571618	-8.357661	 14.474230	-6.964260	 11.758580	 0.837348	 0.000000	 0.000000	 0.000000	-1.488720	-11.135540	-0.711495	-2.562387	 3.598700	 3.555968	 0.000000	 0.000000	 0.000000	 0.000000	 0.000000	 0.000000	-8.602032	-13.926200	 8.997770	-15.031260	 11.945760	-6.217197	-2.364068	-57.418200	-62.487010	 5.250754	 34.975750	-4.271537	 0.000000	 0.000000	 0.000000	 0.000000	 0.000000	 0.000000	 0.000000	 0.000000	 0.000000	 0.000000	 0.000000	 0.000000	 0.000000	 0.000000	 0.000000	 0.000000	 0.000000	 0.000000	 0.000000	 0.000000	 0.000000	 0.000000	 0.000000	 0.000000	 0.000000	 0.000000	 0.000000	 0.000000	 0.000000	 0.000000	 0.000000	 0.000000	 0.000000	 0.000000	 0.000000	 0.000000	 0.000000	 0.000000	 0.000000	 0.000000	 0.000000	 0.000000	 0.000000	 0.000000	 0.000000	-25.028980	-13.270840	-13.979550	 32.498010	 14.628380	 0.231385	-2.990374	 4.153642	 10.360360	-18.187730	-3.436139	-8.111033	 0.000000	 0.000000	 0.000000	 0.000000	 0.000000	 0.000000	 0.000000	 0.000000	 0.000000	 0.000000	 0.000000	 0.000000	 0.000000	 0.000000	 0.000000	 0.000000	 0.000000	 0.000000	 0.000000	 0.000000	 0.000000	 0.000000	 0.000000	 0.000000	 0.000000	 0.000000	 0.000000	 0.000000	 0.000000	 0.000000	 0.000000	 0.000000	 0.000000	 0.000000	 0.000000	 0.000000	 0.000000	 0.000000	 0.000000	 0.000000	 0.000000	 0.000000	 0.000000	 0.000000	 0.000000	 7.247960	-58.153860	 5.750121	 139.222700	 73.165250	-141.972900	 0.368531	 7.999037	-6.631790	 0.000000	 0.000000	 0.000000	 1.802971	-7.498430	 0.540693	 3.411156	 30.231530	-2.603499	-3.108161	-17.957530	-7.521136	 0.000000	 0.000000	 0.000000
-0.118668	 0.866449	-0.122868	-0.708991	 3.068461	-2.135048	-4.075552	-9.107826	 15.933880	-8.069864	 11.380210	 0.910945	 0.000000	 0.000000	 0.000000	-2.261160	-10.707510	-0.878630	-2.843136	 2.358764	 4.490877	 0.000000	 0.000000	 0.000000	 0.000000	 0.000000	 0.000000	-10.743660	-13.626900	 9.144863	-7.891280	 10.867300	-9.653182	-26.908690	-61.736710	-97.955180	 2.997856	 40.547040	-2.475501	 0.000000	 0.000000	 0.000000	 0.000000	 0.000000	 0.000000	 0.000000	 0.000000	 0.000000	 0.000000	 0.000000	 0.000000	 0.000000	 0.000000	 0.000000	 0.000000	 0.000000	 0.000000	 0.000000	 0.000000	 0.000000	 0.000000	 0.000000	 0.000000	 0.000000	 0.000000	 0.000000	 0.000000	 0.000000	 0.000000	 0.000000	 0.000000	 0.000000	 0.000000	 0.000000	 0.000000	 0.000000	 0.000000	 0.000000	 0.000000	 0.000000	 0.000000	 0.000000	 0.000000	 0.000000	-26.018390	-13.052210	-14.150210	 30.706640	 15.222650	-1.036826	-4.676800	 5.365514	 11.209980	-16.874330	-3.200126	-8.243464	 0.000000	 0.000000	 0.000000	 0.000000	 0.000000	 0.000000	 0.000000	 0.000000	 0.000000	 0.000000	 0.000000	 0.000000	 0.000000	 0.000000	 0.000000	 0.000000	 0.000000	 0.000000	 0.000000	 0.000000	 0.000000	 0.000000	 0.000000	 0.000000	 0.000000	 0.000000	 0.000000	 0.000000	 0.000000	 0.000000	 0.000000	 0.000000	 0.000000	 0.000000	 0.000000	 0.000000	 0.000000	 0.000000	 0.000000	 0.000000	 0.000000	 0.000000	 0.000000	 0.000000	 0.000000	 8.986169	-64.214580	 7.686446	 147.692800	 63.598830	-149.243800	 0.488657	 7.706902	-8.330329	 0.000000	 0.000000	 0.000000	 2.826117	-9.477075	 0.751283	 2.460959	 32.118200	-0.603592	-3.702780	-16.963700	-9.592321	 0.000000	 0.000000	 0.000000
-0.120938	 0.862593	-0.135076	-1.197251	 3.487088	-2.413703	-4.204356	-9.660722	 15.965490	-8.451606	 10.945320	 0.945993	 0.000000	 0.000000	 0.000000	-2.924899	-10.453070	-1.019176	-2.981305	 0.852126	 5.124718	 0.000000	 0.000000	 0.000000	 0.000000	 0.000000	 0.000000	-12.369240	-13.302580	 9.122300	-4.320191	 10.209710	-13.551540	-40.137040	-58.758860	-121.621100	 0.636863	 39.578110	-2.205091	 0.000000	 0.000000	 0.000000	 0.000000	 0.000000	 0.000000	 0.000000	 0.000000	 0.000000	 0.000000	 0.000000	 0.000000	 0.000000	 0.000000	 0.000000	 0.000000	 0.000000	 0.000000	 0.000000	 0.000000	 0.000000	 0.000000	 0.000000	 0.000000	 0.000000	 0.000000	 0.000000	 0.000000	 0.000000	 0.000000	 0.000000	 0.000000	 0.000000	 0.000000	 0.000000	 0.000000	 0.000000	 0.000000	 0.000000	 0.000000	 0.000000	 0.000000	 0.000000	 0.000000	 0.000000	-26.660360	-12.807130	-14.086360	 29.534980	 15.701430	-2.104740	-6.700407	 3.515411	 12.409130	-12.534300	-2.359013	-6.648838	 0.000000	 0.000000	 0.000000	 0.000000	 0.000000	 0.000000	 0.000000	 0.000000	 0.000000	 0.000000	 0.000000	 0.000000	 0.000000	 0.000000	 0.000000	 0.000000	 0.000000	 0.000000	 0.000000	 0.000000	 0.000000	 0.000000	 0.000000	 0.000000	 0.000000	 0.000000	 0.000000	 0.000000	 0.000000	 0.000000	 0.000000	 0.000000	 0.000000	 0.000000	 0.000000	 0.000000	 0.000000	 0.000000	 0.000000	 0.000000	 0.000000	 0.000000	 0.000000	 0.000000	 0.000000	 9.928835	-66.843250	 8.725644	 146.948400	 59.737800	-147.658200	 0.503057	 7.856207	-8.296177	 0.000000	 0.000000	 0.000000	 4.231899	-11.683890	 1.117254	 1.651209	 32.426120	 0.941654	-4.208120	-15.048210	-12.168350	 0.000000	 0.000000	 0.000000
-0.120657	 0.864495	-0.144843	-1.101397	 4.384304	-2.194471	-4.436092	-10.279510	 15.428480	-8.777041	 10.400650	 1.016981	 0.000000	 0.000000	 0.000000	-3.398736	-10.357090	-1.160692	-3.543635	-0.481407	 4.864805	 0.000000	 0.000000	 0.000000	 0.000000	 0.000000	 0.000000	-15.015590	-12.881560	 8.534581	-2.609724	 10.183610	-17.003010	-36.285600	-56.227680	-128.856100	-1.929031	 31.944120	-3.658692	 0.000000	 0.000000	 0.000000	 0.000000	 0.000000	 0.000000	 0.000000	 0.000000	 0.000000	 0.000000	 0.000000	 0.000000	 0.000000	 0.000000	 0.000000	 0.000000	 0.000000	 0.000000	 0.000000	 0.000000	 0.000000	 0.000000	 0.000000	 0.000000	 0.000000	 0.000000	 0.000000	 0.000000	 0.000000	 0.000000	 0.000000	 0.000000	 0.000000	 0.000000	 0.000000	 0.000000	 0.000000	 0.000000	 0.000000	 0.000000	 0.000000	 0.000000	 0.000000	 0.000000	 0.000000	-27.831420	-12.442200	-13.837680	 30.313930	 16.273630	-3.912557	-8.058013	 2.302879	 13.790270	-9.787854	-1.789446	-4.780363	 0.000000	 0.000000	 0.000000	 0.000000	 0.000000	 0.000000	 0.000000	 0.000000	 0.000000	 0.000000	 0.000000	 0.000000	 0.000000	 0.000000	 0.000000	 0.000000	 0.000000	 0.000000	 0.000000	 0.000000	 0.000000	 0.000000	 0.000000	 0.000000	 0.000000	 0.000000	 0.000000	 0.000000	 0.000000	 0.000000	 0.000000	 0.000000	 0.000000	 0.000000	 0.000000	 0.000000	 0.000000	 0.000000	 0.000000	 0.000000	 0.000000	 0.000000	 0.000000	 0.000000	 0.000000	 8.410619	-66.121770	 7.292203	 142.787900	 61.686470	-143.710400	 0.393878	 8.104128	-6.807954	 0.000000	 0.000000	 0.000000	 4.685952	-14.422750	 1.420535	 1.111986	 31.973110	 1.964067	-4.544136	-13.243500	-14.607680	 0.000000	 0.000000	 0.000000
-0.117812	 0.871480	-0.150927	-0.298435	 5.310066	-1.185618	-4.835366	-10.640280	 14.437010	-9.046654	 10.053530	 1.110097	 0.000000	 0.000000	 0.000000	-3.847937	-10.479940	-1.303540	-3.778565	-1.328067	 4.016479	 0.000000	 0.000000	 0.000000	 0.000000	 0.000000	 0.000000	-18.094330	-12.523360	 7.683390	-3.569076	 11.508820	-19.572980	-30.906970	-51.864330	-132.046500	-3.919679	 25.541660	-5.017721	 0.000000	 0.000000	 0.000000	 0.000000	 0.000000	 0.000000	 0.000000	 0.000000	 0.000000	 0.000000	 0.000000	 0.000000	 0.000000	 0.000000	 0.000000	 0.000000	 0.000000	 0.000000	 0.000000	 0.000000	 0.000000	 0.000000	 0.000000	 0.000000	 0.000000	 0.000000	 0.000000	 0.000000	 0.000000	 0.000000	 0.000000	 0.000000	 0.000000	 0.000000	 0.000000	 0.000000	 0.000000	 0.000000	 0.000000	 0.000000	 0.000000	 0.000000	 0.000000	 0.000000	 0.000000	-29.217540	-12.137680	-13.522470	 32.473410	 16.762790	-6.094283	-7.856563	 0.903775	 14.844270	-9.066230	-1.578270	-3.530558	 0.000000	 0.000000	 0.000000	 0.000000	 0.000000	 0.000000	 0.000000	 0.000000	 0.000000	 0.000000	 0.000000	 0.000000	 0.000000	 0.000000	 0.000000	 0.000000	 0.000000	 0.000000	 0.000000	 0.000000	 0.000000	 0.000000	 0.000000	 0.000000	 0.000000	 0.000000	 0.000000	 0.000000	 0.000000	 0.000000	 0.000000	 0.000000	 0.000000	 0.000000	 0.000000	 0.000000	 0.000000	 0.000000	 0.000000	 0.000000	 0.000000	 0.000000	 0.000000	 0.000000	 0.000000	 5.122344	-61.237100	 4.103967	 131.187300	 68.785660	-133.285100	 0.225767	 8.308989	-4.846719	 0.000000	 0.000000	 0.000000	 3.811735	-16.483520	 1.351444	 0.801919	 30.562940	 2.598554	-4.589735	-11.325940	-16.650650	 0.000000	 0.000000	 0.000000
